HIERARCHY
ROOT Hips
{
	OFFSET 0.00000 0.00000 0.00000
	CHANNELS 6 Xposition Yposition Zposition Zrotation Yrotation Xrotation 
	JOINT LHipJoint
	{
		OFFSET 0 0 0
		CHANNELS 3 Zrotation Yrotation Xrotation
		JOINT LeftHip
		{
			OFFSET 1.82298 -1.58346 0.87084
			CHANNELS 3 Zrotation Yrotation Xrotation
			JOINT LeftKnee
			{
				OFFSET 2.43790 -6.69809 0.00000
				CHANNELS 3 Zrotation Yrotation Xrotation
				JOINT LeftAnkle
				{
					OFFSET 2.59288 -7.12389 0.00000
					CHANNELS 3 Zrotation Yrotation Xrotation
					JOINT LeftToe
					{
						OFFSET 0.14552 -0.39981 2.13160
						CHANNELS 3 Zrotation Yrotation Xrotation
						End Site
						{
							OFFSET 0.00000 -0.00000 1.09427
						}
					}
				}
			}
		}
	}
	JOINT RHipJoint
	{
		OFFSET 0 0 0
		CHANNELS 3 Zrotation Yrotation Xrotation
		JOINT RightHip
		{
			OFFSET -1.77229 -1.58346 0.87084
			CHANNELS 3 Zrotation Yrotation Xrotation
			JOINT RightKnee
			{
				OFFSET -2.50703 -6.88801 0.00000
				CHANNELS 3 Zrotation Yrotation Xrotation
				JOINT RightAnkle
				{
					OFFSET -2.61620 -7.18796 0.00000
					CHANNELS 3 Zrotation Yrotation Xrotation
					JOINT RightToe
					{
						OFFSET -0.15190 -0.41735 2.15974
						CHANNELS 3 Zrotation Yrotation Xrotation
						End Site
						{
							OFFSET -0.00000 -0.00000 1.10919
						}
					}
				}
			}
		}
	}
	JOINT lowerback
	{
		OFFSET 0 0 0
		CHANNELS 3 Zrotation Yrotation Xrotation
		JOINT Chest
		{
			OFFSET -0.03602 2.12423 -0.30249
			CHANNELS 3 Zrotation Yrotation Xrotation
			JOINT Chest2
			{
				OFFSET 0.02717 2.10043 0.12912
				CHANNELS 3 Zrotation Yrotation Xrotation
				JOINT lowerneck
				{
					OFFSET 0 0 0
					CHANNELS 3 Zrotation Yrotation Xrotation
					JOINT Neck
					{
						OFFSET -0.06371 1.88656 0.11602
						CHANNELS 3 Zrotation Yrotation Xrotation
						JOINT Head
						{
							OFFSET 0.08208 1.87759 -0.11505
							CHANNELS 3 Zrotation Yrotation Xrotation
							End Site
							{
								OFFSET 0.03382 1.93090 -0.05483
							}
						}
					}
				}
				JOINT LeftCollar
				{
					OFFSET 0 0 0
					CHANNELS 3 Zrotation Yrotation Xrotation
					JOINT LeftShoulder
					{
						OFFSET 3.30903 1.40357 0.20156
CHANNELS 3 Zrotation Xrotation Yrotation
						JOINT LeftElbow
						{
OFFSET 0 -5.433010 0.000000
CHANNELS 3 Zrotation Xrotation Yrotation
							JOINT LeftWrist
							{
OFFSET 0 -3.159360 0.000000
CHANNELS 3 Zrotation Xrotation Yrotation
								JOINT lhand
								{
									OFFSET 0 0 0
CHANNELS 3 Zrotation Xrotation Yrotation
									JOINT LFingers
									{
OFFSET 0 -0.712830 0.000000
CHANNELS 3 Zrotation Xrotation Yrotation
										End Site
										{
OFFSET 0 -0.574700 0.000000
										}
									}
								}
								JOINT LThumb
								{
OFFSET 0 0.000000 0.000000
CHANNELS 3 Zrotation Xrotation Yrotation
									End Site
									{
OFFSET 0 -0.583470 0.583470
									}
								}
							}
						}
					}
				}
				JOINT RightCollar
				{
					OFFSET 0 0 0
					CHANNELS 3 Zrotation Yrotation Xrotation
					JOINT RightShoulder
					{
						OFFSET -3.12947 1.60037 -0.00464
CHANNELS 3 Zrotation Xrotation Yrotation
						JOINT RightElbow
						{
OFFSET 0 -5.341940 0.000000
CHANNELS 3 Zrotation Xrotation Yrotation
							JOINT RightWrist
							{
OFFSET 0 -3.193510 0.000000
CHANNELS 3 Zrotation Xrotation Yrotation
								JOINT rhand
								{
									OFFSET 0 0 0
CHANNELS 3 Zrotation Xrotation Yrotation
									JOINT RFingers
									{
OFFSET 0 -0.743860 0.000000
CHANNELS 3 Zrotation Xrotation Yrotation
										End Site
										{
OFFSET 0 -0.599720 0.000000
										}
									}
								}
								JOINT RThumb
								{
OFFSET 0 0.000000 0.000000
CHANNELS 3 Zrotation Xrotation Yrotation
									End Site
									{
OFFSET 0 -0.608880 0.608880
									}
								}
							}
						}
					}
				}
			}
		}
	}
}
MOTION
Frames: 15
Frame Time: .0083333
-3.4009 14.9563 1.9230 -8.1652 -2.8656 4.7825 0.0000 0.0000 0.0000 -15.2343 -3.7531 -51.4684 12.8659 18.7332 68.7086 0.5189 12.9903 -23.8019 0.1333 2.3535 6.4836 0.0000 0.0000 0.0000 13.8520 -8.7867 -27.4057 -21.9878 -19.9050 95.8207 -0.6445 -2.1803 -16.1094 -1.5799 7.9299 -22.5013 -3.8078 7.9516 9.3669 0.3353 10.1959 -3.0323 0.6498 5.1588 -9.1863 -6.6731 -7.3620 -1.7732 9.0628 -9.9744 2.7427 3.8743 -4.9194 2.0943 -0.0000 0.0000 0.0000 19.5144 8.6739 -22.8869 120.0567 -56.2948 85.7061 24.9579 -20.5031 -5.1524 0.0 0.0 0.0 -7.1250 0.0 0.0 -1.4413 35.6565 -0.331 -0.0000 0.0000 0.0000 -38.1867 -15.6369 35.504 -120.6211 -56.1421 -86.1752 -33.7994 36.0302 35.0562 0.0 0.0 0.0 7.1250 0.0 -0.0 -1.0537 70.1542 0.6334
-3.4211 15.0499 2.0635 -8.4816 -1.3869 3.9529 0.0000 0.0000 0.0000 -15.1676 -3.7962 -49.5078 12.5457 18.6119 67.7084 0.5862 12.3913 -23.7574 0.1091 2.1302 5.8656 0.0000 0.0000 0.0000 13.6445 -8.8043 -30.6482 -22.8053 -19.8103 98.2272 -0.6295 -3.6524 -16.7587 -1.4392 7.5845 -21.4591 -3.8041 7.7922 9.6421 0.4305 9.9776 -2.8460 0.7671 5.0515 -9.1454 -6.6561 -7.5829 -1.4437 9.3713 -10.3048 2.7840 3.9756 -5.0871 2.0982 0.0000 -0.0000 0.0000 20.2738 8.3695 -22.6745 119.1975 -56.52 84.9904 24.8057 -20.1348 -4.5558 0.0 0.0 0.0 -7.1250 0.0 0.0 -1.5363 34.993 -0.3776 0.0000 -0.0000 0.0000 -38.4619 -13.9341 34.644 -119.3862 -56.4713 -85.1477 -34.2337 36.5797 34.9764 0.0 0.0 0.0 7.1250 0.0 -0.0 -1.7840 70.2101 1.0747
-3.4433 15.1486 2.2062 -8.7367 0.1222 3.0029 0.0000 0.0000 0.0000 -15.1714 -3.7892 -47.3622 12.1971 18.4727 66.6121 0.6712 11.7085 -23.8053 0.0935 1.9721 5.4287 0.0000 0.0000 0.0000 13.1180 -8.6897 -33.7837 -23.5354 -19.6976 100.3872 -0.6360 -4.4309 -17.3261 -1.3241 7.2876 -20.5702 -3.8906 7.6139 9.9496 0.5442 9.7220 -2.5992 0.9606 4.9305 -9.0732 -6.7007 -7.7847 -1.0874 9.6961 -10.6109 2.8387 4.0972 -5.2441 2.1060 0.0000 -0.0000 0.0000 21.0759 7.9714 -22.5636 118.5274 -56.6897 84.4309 24.2278 -20.117 -3.9756 0.0 0.0 0.0 -7.1250 0.0 0.0 -1.9841 34.3328 -0.5196 0.0000 -0.0000 0.0000 -38.6418 -12.1594 33.8362 -117.9466 -56.8327 -83.9451 -34.2181 36.9285 35.1316 0.0 0.0 0.0 7.1250 0.0 -0.0 -1.6585 70.3688 1.005
-3.4686 15.2430 2.3468 -9.0845 1.6661 1.9933 0.0000 0.0000 0.0000 -15.0383 -3.8379 -45.1776 11.8457 18.3247 65.4989 0.7768 10.9121 -23.9495 0.0951 1.9888 5.4747 0.0000 0.0000 0.0000 12.4250 -8.3377 -36.8786 -24.2159 -19.5684 102.4123 -0.6818 -4.3564 -17.7836 -1.3391 7.3269 -20.6874 -3.9675 7.3861 10.2882 0.7590 9.4090 -2.3101 1.2670 4.7839 -8.9834 -6.7840 -7.9477 -0.7879 10.3024 -10.8786 3.0149 3.8830 -5.3605 1.9634 0.0000 -0.0000 0.0000 21.7049 7.3052 -22.3727 117.8798 -56.849 83.8892 23.1318 -20.2996 -3.4666 0.0 0.0 0.0 -7.1250 0.0 0.0 -2.8559 33.7385 -0.7896 0.0000 -0.0000 0.0000 -38.8454 -10.3856 33.1021 -116.3246 -57.2123 -82.5844 -34.2697 37.2309 35.2191 0.0 0.0 0.0 7.1250 0.0 -0.0 -1.6825 70.4778 1.0236
-3.4976 15.3427 2.4877 -9.3539 3.2661 0.9188 0.0000 0.0000 0.0000 -14.9812 -3.9235 -42.9079 11.4734 18.1590 64.3095 0.8396 10.2513 -23.8839 0.0809 1.8350 5.0499 0.0000 0.0000 0.0000 11.2916 -7.9562 -39.9342 -24.8506 -19.4263 104.3138 -0.7461 -3.6460 -18.0377 -1.4926 7.7179 -21.8606 -4.1558 7.1389 10.4568 0.9846 9.0623 -1.8678 1.6871 4.6248 -8.6434 -6.9558 -8.1052 -0.5675 10.6318 -11.1163 3.0466 4.0048 -5.4814 1.9858 -0.0000 0.0000 0.0000 22.2722 6.2656 -22.1996 117.2957 -56.9885 83.3998 21.82 -20.5254 -3.0551 0.0 0.0 0.0 -7.1250 0.0 0.0 -3.9002 33.2522 -1.1253 -0.0000 0.0000 0.0000 -39.1316 -8.8859 32.1828 -114.1152 -57.6844 -80.722 -35.576 38.3151 36.1197 0.0 0.0 0.0 7.1250 0.0 -0.0 -3.2174 71.8558 2.0561
-3.5320 15.4388 2.6288 -9.6462 4.9912 -0.2459 0.0000 0.0000 0.0000 -14.8935 -4.1056 -40.5307 11.0921 17.9798 63.0802 0.9044 9.5509 -23.8261 0.0702 1.7098 4.7044 0.0000 0.0000 0.0000 9.8311 -7.4614 -42.8631 -25.4623 -19.2691 106.1600 -0.8075 -2.3065 -17.9591 -1.4406 7.5881 -21.4699 -4.4520 6.8458 11.0269 1.2468 8.6261 -1.6316 2.1592 4.4293 -8.7685 -7.0945 -8.2173 -0.1644 10.8552 -11.3051 3.1766 4.0988 -5.5831 1.9957 0.0000 0.0000 0.0000 22.7696 5.3337 -22.1108 116.7073 -57.1254 82.906 20.4292 -20.8337 -2.6081 0.0 0.0 0.0 -7.1250 0.0 0.0 -4.9962 32.7348 -1.506 0.0000 0.0000 0.0000 -39.3345 -6.9042 31.6696 -111.9467 -58.0995 -78.8851 -36.2246 38.7742 36.5696 0.0 0.0 0.0 7.1250 0.0 -0.0 -4.0312 72.5466 2.6377
-3.5731 15.5340 2.7678 -9.9128 6.8368 -1.6006 0.0000 0.0000 0.0000 -14.8547 -4.2926 -37.9538 10.6915 17.7808 61.7757 0.9578 8.8318 -23.6854 0.0601 1.5815 4.3503 0.0000 0.0000 0.0000 7.9706 -7.0712 -45.5353 -26.0646 -19.0943 107.9929 -0.8836 -0.7579 -18.0514 -1.5095 7.7595 -21.9859 -4.8563 6.5447 11.5972 1.5576 8.1651 -1.1637 2.7718 4.2227 -8.6530 -7.2265 -8.3502 0.0422 11.0642 -11.5052 3.2074 4.1802 -5.6868 2.0092 -0.0000 -0.0000 0.0000 23.1611 3.9317 -22.0226 116.1693 -57.2472 82.4538 18.9273 -21.1461 -2.3331 0.0 0.0 0.0 -7.1250 0.0 0.0 -6.1850 32.4047 -1.917 -0.0000 -0.0000 0.0000 -39.6337 -5.1065 31.0247 -109.4236 -58.5253 -76.738 -36.7435 38.9244 36.9302 0.0 0.0 0.0 7.1250 0.0 -0.0 -4.7113 73.1014 3.1403
-3.6228 15.6400 2.9059 -10.3122 8.8632 -3.1073 0.0000 0.0000 0.0000 -14.6855 -4.5720 -35.2288 10.2690 17.5584 60.3836 0.9920 8.1441 -23.4358 0.0481 1.4156 3.8930 0.0000 0.0000 0.0000 5.9006 -6.7610 -47.9737 -26.6349 -18.9101 109.7441 -1.0342 1.0888 -18.8896 -1.9481 8.7572 -25.0387 -5.2703 6.2117 12.3485 1.9382 7.6545 -0.6361 3.4695 3.9910 -8.5683 -7.3926 -8.4887 0.1316 11.2974 -11.7079 3.2265 4.2685 -5.7886 2.0429 0.0000 0.0000 0.0000 23.4548 2.1342 -22.0016 115.4039 -57.4152 81.8095 17.8368 -21.3367 -2.1567 0.0 0.0 0.0 -7.1250 0.0 0.0 -7.0448 32.1928 -2.2231 0.0000 0.0000 0.0000 -39.9773 -3.4185 30.3791 -106.6179 -58.9304 -74.3398 -37.6449 39.3418 37.6434 0.0 0.0 0.0 7.1250 0.0 -0.0 -5.9061 74.1589 4.0731
-3.6774 15.7525 3.0427 -10.9422 11.0665 -4.8050 0.0000 0.0000 0.0000 -14.3183 -4.9255 -32.3816 9.8391 17.3184 58.9494 1.0212 7.4182 -23.1420 0.0343 1.1951 3.2857 0.0000 0.0000 0.0000 3.6566 -6.6848 -50.1658 -27.1969 -18.7099 111.4871 -1.0828 2.6583 -18.9602 -2.0285 8.9253 -25.5619 -5.5675 5.8242 13.1831 2.4010 7.0890 -0.0053 4.2148 3.7241 -8.3904 -7.4834 -8.6427 0.2888 11.4993 -11.9187 3.0577 4.3429 -5.8997 2.0053 -0.0000 0.0000 0.0000 23.6277 -0.0793 -21.9811 114.4051 -57.6253 80.967 17.0438 -21.4751 -1.9608 0.0 0.0 0.0 -7.1250 0.0 0.0 -7.6609 31.97 -2.4619 -0.0000 0.0000 0.0000 -40.2942 -1.6391 29.7663 -103.7272 -59.2759 -71.8592 -38.1751 39.4315 37.8111 0.0 0.0 0.0 7.1250 0.0 -0.0 -6.8277 74.5168 4.7625
-3.7419 15.8718 3.1781 -11.8820 13.4718 -6.6295 0.0000 0.0000 0.0000 -13.6720 -5.3719 -29.5925 9.4078 17.0631 57.4901 1.0340 6.6845 -22.7308 0.0217 0.9516 2.6157 0.0000 0.0000 0.0000 1.3505 -6.8862 -52.1534 -27.7486 -18.4949 113.2165 -1.0919 3.9764 -18.8255 -2.0247 8.9174 -25.5373 -5.7604 5.3535 14.1890 2.9629 6.4283 0.6134 5.0324 3.4087 -8.2897 -7.6472 -8.7584 0.4583 11.7956 -12.0729 2.7768 4.4624 -5.9851 1.9382 0.0000 -0.0000 0.0000 23.7544 -2.4347 -22.0196 113.3438 -57.8374 80.0696 16.4111 -21.6777 -1.7617 0.0 0.0 0.0 -7.1250 0.0 0.0 -8.1461 31.7494 -2.6641 0.0000 -0.0000 0.0000 -40.6382 -0.0079 29.2426 -100.5908 -59.5719 -69.1587 -38.4821 39.5509 38.0461 0.0 0.0 0.0 7.1250 0.0 -0.0 -7.2869 74.8695 5.1386
-3.8133 15.9890 3.3090 -13.0418 15.9688 -8.5835 0.0000 0.0000 0.0000 -12.8669 -5.8758 -26.8934 8.9947 16.8043 56.0719 1.0422 5.8909 -22.2669 0.0159 0.8146 2.2388 0.0000 0.0000 0.0000 -1.1362 -7.3803 -53.9943 -28.3205 -18.2518 115.0309 -1.1052 4.7655 -18.8562 -2.0605 8.9909 -25.7670 -5.8781 4.8446 15.3512 3.5471 5.7248 1.1803 5.8526 3.0725 -8.2976 -7.6929 -8.8747 0.7217 11.9955 -12.2269 2.4858 4.5407 -6.0741 1.8403 0.0000 -0.0000 0.0000 23.8467 -4.9275 -22.1373 112.1327 -58.0657 79.043 16.1243 -21.9017 -1.6237 0.0 0.0 0.0 -7.1250 0.0 0.0 -8.3605 31.6008 -2.7658 0.0000 -0.0000 0.0000 -40.9419 1.6509 28.8243 -97.2916 -59.7981 -66.3104 -38.9648 39.763 38.1448 0.0 0.0 0.0 7.1250 0.0 -0.0 -8.2133 75.1388 5.8409
-3.8944 16.1207 3.4407 -14.6011 18.5379 -10.7916 0.0000 0.0000 0.0000 -11.6932 -6.2914 -24.2861 8.5960 16.5406 54.6821 1.0426 4.9797 -21.6953 0.0142 0.7691 2.1138 0.0000 0.0000 0.0000 -3.5697 -8.0298 -55.4998 -28.8631 -18.0014 116.7746 -1.0875 5.4387 -18.6503 -2.0063 8.8792 -25.4182 -5.8395 4.3102 16.6492 4.2127 5.0213 1.7457 6.6931 2.7339 -8.3511 -7.7463 -8.9960 1.1184 12.2848 -12.3898 2.1089 4.6555 -6.1734 1.7029 -0.0000 -0.0000 0.0000 23.9104 -7.6634 -22.3646 110.6818 -58.3204 77.81 15.9632 -22.1654 -1.6002 0.0 0.0 0.0 -7.1250 0.0 0.0 -8.4861 31.5731 -2.8138 -0.0000 -0.0000 0.0000 -41.1495 3.3447 28.3989 -93.8823 -59.943 -63.3616 -39.3289 40.1933 38.1764 0.0 0.0 0.0 7.1250 0.0 -0.0 -8.9565 75.2967 6.4013
-3.9829 16.2573 3.5713 -16.3558 21.1656 -13.1313 0.0000 0.0000 0.0000 -10.3644 -6.6604 -21.9390 8.2374 16.2911 53.4134 1.0177 4.0328 -20.9159 0.0028 0.3395 0.9328 0.0000 0.0000 0.0000 -6.2321 -8.9496 -56.8143 -29.4051 -17.7311 118.5412 -1.0874 6.1030 -18.6223 -1.9725 8.8086 -25.1983 -5.8228 3.7531 18.0799 4.8847 4.2879 2.2609 7.5886 2.3871 -8.5039 -7.7790 -9.1025 1.4302 12.5843 -12.5371 1.8451 4.7646 -6.2605 1.6111 0.0000 0.0000 0.0000 24.0024 -10.4782 -22.6756 109.1211 -58.5724 76.48 15.8353 -22.6652 -1.7259 0.0 0.0 0.0 -7.1250 0.0 0.0 -8.6006 31.6994 -2.8261 0.0000 0.0000 0.0000 -41.2445 4.9875 28.0148 -90.2886 -59.9997 -60.2499 -39.3547 40.6865 38.1326 0.0 0.0 0.0 7.1250 0.0 -0.0 -9.0366 75.2591 6.4516
-4.0830 16.3872 3.7049 -18.2623 23.8263 -15.5707 0.0000 0.0000 0.0000 -9.0113 -6.7844 -19.9781 7.9343 16.0707 52.3256 0.9692 3.1935 -20.0096 0.0000 -0.0382 -0.1051 0.0000 0.0000 0.0000 -9.2424 -10.1207 -58.0220 -29.9438 -17.4413 120.3240 -1.1079 6.9821 -18.7945 -1.9447 8.7500 -25.0165 -5.8397 3.2103 19.5401 5.5242 3.5728 2.7700 8.4992 2.0512 -8.6529 -7.7820 -9.2408 1.6109 12.9436 -12.7307 1.6827 4.8756 -6.3643 1.5780 -0.0000 0.0000 0.0000 24.1487 -13.5218 -23.1029 107.3298 -58.8342 74.9493 15.9326 -23.3928 -1.9556 0.0 0.0 0.0 -7.1250 0.0 0.0 -8.5468 31.9378 -2.7586 -0.0000 0.0000 0.0000 -41.2614 6.5276 27.5655 -86.4811 -59.9532 -56.953 -39.1607 41.2332 38.1458 0.0 0.0 0.0 7.1250 0.0 -0.0 -8.6212 75.2068 6.1444
-4.1887 16.5234 3.8460 -20.4059 26.2681 -18.1918 0.0000 0.0000 0.0000 -7.4424 -6.3710 -18.5012 7.7073 15.8997 51.5013 0.8670 2.4283 -18.6266 0.0112 -0.6824 -1.8752 0.0000 0.0000 0.0000 -12.3421 -11.2462 -59.1240 -30.4447 -17.1521 122.0084 -1.1097 8.1137 -18.8534 -1.8274 8.4969 -24.2337 -5.8957 2.7206 21.0101 6.1954 2.9328 3.2633 9.4862 1.7564 -8.8127 -7.7888 -9.3512 1.7655 13.3602 -12.8924 1.5847 5.0028 -6.4501 1.5696 -0.0000 0.0000 0.0000 24.3401 -16.614 -23.5914 105.3754 -59.0876 73.2746 16.3964 -24.4503 -2.3555 0.0 0.0 0.0 -7.1250 0.0 0.0 -8.2180 32.3616 -2.5657 -0.0000 0.0000 0.0000 -41.0974 7.9502 27.1356 -82.6180 -59.7931 -53.6114 -38.2671 41.4688 38.287 0.0 0.0 0.0 7.1250 0.0 -0.0 -6.6864 75.0493 4.7399
